<?xml version="1.0" encoding="UTF-8"?>
<svg id="_레이어_1" data-name="레이어 1" xmlns="http://www.w3.org/2000/svg" xmlns:xlink="http://www.w3.org/1999/xlink" viewBox="0 0 208.06 357.17">
  <defs>
    <style>
      .cls-1 {
        fill: url(#_무제_그라디언트_48);
      }

      .cls-2 {
        filter: url(#drop-shadow-1);
      }
    </style>
    <filter id="drop-shadow-1" x="0" y="0" width="208.06" height="357.17" filterUnits="userSpaceOnUse">
      <feOffset dx="7" dy="5"/>
      <feGaussianBlur result="blur" stdDeviation="0"/>
      <feFlood flood-color="#7645c4" flood-opacity="1"/>
      <feComposite in2="blur" operator="in"/>
      <feComposite in="SourceGraphic"/>
    </filter>
    <linearGradient id="_무제_그라디언트_48" data-name="무제 그라디언트 48" x1="100.53" y1="0" x2="100.53" y2="352.17" gradientUnits="userSpaceOnUse">
      <stop offset="0" stop-color="#fff"/>
      <stop offset="1" stop-color="#805ecd"/>
    </linearGradient>
  </defs>
  <g class="cls-2">
    <path class="cls-1" d="M188.02,122.08l-51.22-99.91c-15.15-29.55-57.39-29.55-72.54,0L13.04,122.08c-17.38,33.91-17.38,74.11,0,108.02l51.22,99.91c15.15,29.55,57.39,29.55,72.54,0l51.22-99.91c17.38-33.91,17.38-74.11,0-108.02ZM100.53,47.87c-6.99,0-12.65-5.66-12.65-12.65s5.66-12.65,12.65-12.65,12.65,5.66,12.65,12.65-5.66,12.65-12.65,12.65Z"/>
  </g>
</svg>